<?xml version="1.0" encoding="UTF-8" standalone="no"?>
<!-- Created with Inkscape (http://www.inkscape.org/) -->

<svg
   width="225.2027mm"
   height="170.36003mm"
   viewBox="0 0 225.2027 170.36003"
   version="1.1"
   id="svg1"
   xml:space="preserve"
   xmlns="http://www.w3.org/2000/svg"
   xmlns:svg="http://www.w3.org/2000/svg"><defs
     id="defs1" /><g
     id="layer1"
     transform="translate(7.830013,-79.137623)"><path
       id="path1"
       style="fill:#0097a7;fill-opacity:1;stroke:none;stroke-width:0.790639;stroke-linecap:round;stroke-linejoin:round;stroke-dasharray:none;stroke-opacity:1"
       d="m 106.51433,96.417768 c -16.674398,-0.03033 -32.831628,4.700622 -44.521698,13.967762 -4.499525,-4.23628 -9.907117,-8.04227 -20.326618,-9.4703 l -4.022855,0.64591 c -1.634366,1.98668 -1.141567,4.28227 0,6.67205 1.538883,5.73938 2.702824,11.47852 1.482382,17.2179 -4.371367,5.24784 -7.500122,10.96937 -8.68113,17.43334 H 21.76328 c -2.608847,0.64995 -5.038671,1.60317 -5.293293,6.24158 l 0.211942,21.73802 c 0.290547,3.38836 2.047328,5.45149 5.92831,5.59567 h 11.010066 c 5.851602,16.91122 18.683138,27.05016 33.24214,35.5126 v 14.6355 c 0.01581,3.28407 1.660058,4.91275 4.869814,4.95017 h 16.938376 c 2.166861,0.0332 4.236866,-0.11056 4.446333,-3.65877 l -0.03606,-5.59608 c 10.530832,0.18566 19.876982,1.13695 33.066672,-2.15234 v 7.53298 c 0.003,1.78187 0.61056,3.30063 3.38744,3.87421 l 17.78574,0.6455 c 3.39292,0.22052 4.22101,-2.16584 4.86981,-4.73474 l -0.42349,-17.64878 c 13.74729,-9.72783 36.35218,-33.59478 26.04299,-67.15055 3.03483,-0.33595 6.06978,0.0409 9.10462,-2.58281 1.22757,1.6537 1.73584,3.36851 1.27043,5.16562 -0.24897,1.01945 0.44171,3.09755 2.1174,3.44333 0.86813,0.14091 2.50242,-0.93218 2.69933,-2.5824 0.47508,-5.25547 -1.53687,-7.21178 -3.12281,-9.25485 1.86486,-1.94363 3.1406,-4.30184 3.1759,-7.53299 -0.34868,-5.68086 -4.69824,-9.50836 -8.46919,-9.03942 -3.77096,0.46894 -8.23085,5.42897 -6.85065,9.85052 1.38021,4.42154 3.81597,5.30756 5.58021,6.29142 -1.21987,1.04956 -4.22669,1.00931 -7.41069,0.86094 C 163.53164,109.74457 134.30498,96.468324 106.51433,96.417768 Z M 184.467,125.47374 c 1.41596,-0.008 3.15604,0.94911 3.7481,2.61536 0.72869,2.05077 -1.43983,5.23276 -1.43983,5.23276 -0.56709,-1.46733 -3.39262,-1.91523 -4.19549,-3.61181 -0.80286,-1.69658 -0.48537,-3.49981 0.97664,-4.07359 0.27413,-0.10759 0.58382,-0.16095 0.91058,-0.16272 z" /></g></svg>
